# Blender v2.80 (sub 75) OBJ File: '3D_house10.blend'
# www.blender.org
mtllib ground.mtl
o grass_platform_Plane.002
v -29.818922 -0.549293 29.875465
v 29.922903 -0.549293 29.875465
v -29.818922 -0.549293 -29.866360
v 29.922903 -0.549293 -29.866360
v -7.129485 -0.549293 29.875465
v -7.129485 -0.549293 -29.866360
v -1.829485 -0.549293 29.875465
v -1.829487 -0.549293 -29.866360
v -29.818922 -0.549293 15.212847
v 29.922903 -0.549293 15.212847
v -7.129485 -0.549293 15.212847
v -1.829486 -0.549293 15.212847
v 29.922903 -0.549293 4.464901
v -7.129485 -0.549293 4.464901
v -1.829487 -0.549293 4.464901
v -29.818922 -0.549293 4.464903
v 9.701284 -0.549293 29.875465
v 20.285412 -0.549293 29.875465
v 20.285412 -0.549293 -29.866360
v 9.701283 -0.549293 -29.866360
v 20.285412 -0.549293 15.212847
v 9.701283 -0.549293 15.212847
v 20.285412 -0.549293 4.464901
v 9.701283 -0.549293 4.464901
v -29.818922 -0.549293 5.934902
v 29.922903 -0.549293 5.934901
v -7.129485 -0.549293 5.934901
v -1.829486 -0.549293 5.934901
v 9.701283 -0.549293 5.934901
v 20.285412 -0.549293 5.934901
v 6.631284 -0.549293 -29.866360
v 6.631284 -0.549293 15.212847
v 6.631284 -0.549293 4.464901
v 6.631285 -0.549293 29.875465
v 6.631284 -0.549293 5.934901
v 29.922903 -0.549293 -0.315099
v -29.818922 -0.549293 -0.315099
v 9.701283 -0.549293 -0.315099
v 20.285412 -0.549293 -0.315099
v 7.131285 -0.549293 29.875465
v 7.131284 -0.549293 -29.866360
v 7.131284 -0.549293 15.212847
v 7.131284 -0.549293 5.934901
v 7.131284 -0.549293 -0.315099
v 29.922903 -0.549293 -7.215099
v -7.129485 -0.549293 -7.215099
v -1.829487 -0.549293 -7.215099
v 9.701283 -0.549293 -7.215099
v 20.285412 -0.549293 -7.215099
v 6.631284 -0.549293 -7.215099
v -29.818922 -0.549293 -7.215099
v 7.131284 -0.549293 -7.215099
v -1.549485 -0.549293 -29.866360
v -1.549485 -0.549293 15.212847
v -1.549485 -0.549293 4.464901
v -1.549485 -0.549293 5.934901
v -1.549484 -0.549293 29.875465
v -1.549485 -0.549293 -7.215099
v 29.922903 -0.549293 -7.975099
v -7.129485 -0.549293 -7.975099
v -1.829487 -0.549293 -7.975099
v 9.701283 -0.549293 -7.975099
v 20.285412 -0.549293 -7.975099
v 6.631284 -0.549293 -7.975099
v 7.131284 -0.549293 -7.975099
v -29.818922 -0.549293 -7.975099
v -1.549485 -0.549293 -7.975099
v -4.099485 -0.549293 -29.866360
v -4.099484 -0.549293 29.875465
v -4.099484 -0.549293 15.212847
v -4.099485 -0.549293 -7.215099
v -4.099485 -0.549293 -7.975099
v -7.629484 -0.549293 -29.866360
v -7.629484 -0.549293 29.875465
v -7.629484 -0.549293 15.212847
v -7.629484 -0.549293 4.464902
v -7.629484 -0.549293 5.934901
v -7.629484 -0.549293 -0.315099
v -7.629484 -0.549293 -7.215099
v -7.629484 -0.549293 -7.975099
v -29.818922 -0.549293 0.184902
v 29.922903 -0.549293 0.184901
v -7.129485 -0.549293 0.184901
v 9.701283 -0.549293 0.184901
v 20.285412 -0.549293 0.184901
v -7.629484 -0.549293 0.184901
vt 0.642706 0.487550
vt 5.461452 0.487550
vt 5.461452 11.433180
vt 0.642706 11.433180
vt 0.685258 0.487550
vt 0.935257 0.487550
vt 0.935257 11.433180
vt 0.685258 11.433180
vt 0.450257 0.487550
vt 1.585256 0.487550
vt 1.585256 11.433180
vt 0.450257 11.433180
vt 0.450258 0.562267
vt 1.585257 0.562267
vt 1.585257 7.893577
vt 0.450258 7.893577
vt 0.685258 0.562267
vt 0.935257 0.562267
vt 0.935257 7.893577
vt 0.685258 7.893577
vt 0.642706 0.562267
vt 5.461452 0.562267
vt 5.461452 7.893577
vt 0.642706 7.893577
vt 0.685258 0.532549
vt 0.935257 0.532550
vt 0.935257 1.267549
vt 0.685258 1.267549
vt 0.642706 0.532550
vt 5.461452 0.532550
vt 5.461452 1.267549
vt 0.642706 1.267549
vt 0.350642 0.532550
vt 5.642706 0.532550
vt 5.642706 1.267549
vt 0.350642 1.267549
vt 0.065642 0.562267
vt 1.350642 0.562267
vt 1.350642 7.893577
vt 0.065642 7.893577
vt 0.350642 0.562267
vt 5.642706 0.562267
vt 5.642706 7.893577
vt 0.350642 7.893577
vt 0.065642 0.487550
vt 1.350642 0.487550
vt 1.350642 11.433180
vt 0.065642 11.433180
vt 0.350642 0.487550
vt 5.642706 0.487550
vt 5.642706 11.433180
vt 0.350642 11.433180
vt 0.350642 0.893577
vt 5.642706 0.893577
vt 5.642706 5.532550
vt 0.350642 5.532550
vt 0.065642 0.893577
vt 1.350642 0.893577
vt 1.350642 5.532550
vt 0.065642 5.532550
vt 0.642706 0.893577
vt 5.461452 0.893577
vt 5.461452 5.532550
vt 0.642706 5.532550
vt 0.685258 0.893577
vt 0.935257 0.893577
vt 0.935257 5.532550
vt 0.685258 5.532549
vt 0.725258 0.893577
vt 4.815642 0.893577
vt 4.815642 5.532550
vt 0.725258 5.532550
vt 0.725257 0.487550
vt 4.815642 0.487550
vt 4.815642 11.433180
vt 0.725257 11.433180
vt 0.725258 0.562267
vt 4.815642 0.562267
vt 4.815642 7.893577
vt 0.725258 7.893577
vt 0.725258 0.532550
vt 4.815642 0.532550
vt 4.815642 1.267549
vt 0.725258 1.267549
vt 0.350642 0.407550
vt 5.642706 0.407550
vt 5.642706 0.657550
vt 0.350642 0.657550
vt 0.642706 0.407550
vt 5.461452 0.407550
vt 5.461452 0.657550
vt 0.642706 0.657550
vt 0.815642 0.893577
vt 1.065642 0.893577
vt 1.065642 5.532550
vt 0.815642 5.532550
vt 0.815642 0.487550
vt 1.065642 0.487550
vt 1.065642 11.433180
vt 0.815642 11.433180
vt 0.815642 0.562267
vt 1.065642 0.562267
vt 1.065642 7.893577
vt 0.815642 7.893577
vt 5.642706 4.107550
vt 0.350642 4.107550
vt 0.065642 0.657550
vt 1.350642 0.657550
vt 1.350642 4.107550
vt 0.065642 4.107550
vt 5.461452 4.107550
vt 0.642706 4.107550
vt 0.585257 0.532550
vt 0.585257 1.267549
vt 0.585257 0.562267
vt 0.585257 7.893577
vt 0.585256 0.487550
vt 0.585256 11.433180
vt 0.585257 0.893577
vt 0.585257 5.532550
vt 0.585257 0.107550
vt 0.725257 0.107550
vt 0.815642 0.107550
vt 1.065642 0.107550
vt 4.815642 0.107550
vt 0.350642 0.107550
vt 5.642706 0.107550
vt 0.065642 0.107550
vt 1.350642 0.107550
vt 0.450257 0.107550
vt 1.585257 0.107550
vt 0.685258 0.107550
vt 0.935257 0.107550
vt 0.642706 0.107550
vt 5.461452 0.107550
vt 2.450257 0.107550
vt 2.450257 0.487550
vt 2.450258 0.562267
vt 2.450258 7.893577
vt 2.450257 11.433180
vt 0.590539 0.107550
vt 11.685258 0.107550
vt 11.685258 0.487550
vt 0.590539 0.487550
vt 0.590539 0.657550
vt 11.685258 0.657550
vt 11.685258 4.107550
vt 0.590539 4.107550
vt 0.590539 0.407549
vt 11.685258 0.407549
vt 0.590539 0.893577
vt 11.685258 0.893577
vt 11.685258 5.532549
vt 0.590539 5.532549
vt 0.590539 0.532549
vt 11.685258 0.532549
vt 11.685258 1.267549
vt 0.590539 1.267548
vt 0.590539 0.562267
vt 11.685258 0.562267
vt 11.685258 7.893577
vt 0.590539 7.893577
vt 11.685258 11.433180
vt 0.590539 11.433180
vt 0.590539 0.267548
vt 11.685258 0.267549
vt 11.685258 2.407549
vt 0.590539 2.407549
vt 0.642706 0.267549
vt 5.461452 0.267549
vt 5.461452 2.407550
vt 0.642706 2.407550
vt 0.685258 0.267549
vt 0.935257 0.267549
vt 0.935257 2.407550
vt 0.685258 2.407549
vt 0.350642 0.267549
vt 5.642706 0.267549
vt 5.642706 2.407550
vt 0.350642 2.407550
vn 0.0000 1.0000 0.0000
usemtl grass_ground
s off
f 63/1/1 59/2/1 4/3/1 19/4/1
f 80/5/1 60/6/1 6/7/1 73/8/1
f 72/9/1 61/10/1 8/11/1 68/12/1
f 69/13/1 7/14/1 12/15/1 70/16/1
f 74/17/1 5/18/1 11/19/1 75/20/1
f 18/21/1 2/22/1 10/23/1 21/24/1
f 77/25/1 27/26/1 14/27/1 76/28/1
f 30/29/1 26/30/1 13/31/1 23/32/1
f 29/33/1 30/34/1 23/35/1 24/36/1
f 40/37/1 17/38/1 22/39/1 42/40/1
f 17/41/1 18/42/1 21/43/1 22/44/1
f 65/45/1 62/46/1 20/47/1 41/48/1
f 62/49/1 63/50/1 19/51/1 20/52/1
f 22/53/1 21/54/1 30/55/1 29/56/1
f 42/57/1 22/58/1 29/59/1 43/60/1
f 21/61/1 10/62/1 26/63/1 30/64/1
f 75/65/1 11/66/1 27/67/1 77/68/1
f 54/69/1 32/70/1 35/71/1 56/72/1
f 67/73/1 64/74/1 31/75/1 53/76/1
f 57/77/1 34/78/1 32/79/1 54/80/1
f 56/81/1 35/82/1 33/83/1 55/84/1
f 84/85/1 85/86/1 39/87/1 38/88/1
f 85/89/1 82/90/1 36/91/1 39/92/1
f 32/93/1 42/94/1 43/95/1 35/96/1
f 64/97/1 65/98/1 41/99/1 31/100/1
f 34/101/1 40/102/1 42/103/1 32/104/1
f 38/88/1 39/87/1 49/105/1 48/106/1
f 44/107/1 38/108/1 48/109/1 52/110/1
f 39/92/1 36/91/1 45/111/1 49/112/1
f 28/113/1 56/81/1 55/84/1 15/114/1
f 7/115/1 57/77/1 54/80/1 12/116/1
f 61/117/1 67/73/1 53/76/1 8/118/1
f 12/119/1 54/69/1 56/72/1 28/120/1
f 47/121/1 58/122/1 67/73/1 61/117/1
f 50/123/1 52/124/1 65/98/1 64/97/1
f 58/122/1 50/125/1 64/74/1 67/73/1
f 48/126/1 49/127/1 63/50/1 62/49/1
f 52/128/1 48/129/1 62/46/1 65/45/1
f 71/130/1 47/131/1 61/10/1 72/9/1
f 79/132/1 46/133/1 60/6/1 80/5/1
f 49/134/1 45/135/1 59/2/1 63/1/1
f 46/133/1 71/136/1 72/137/1 60/6/1
f 5/18/1 69/138/1 70/139/1 11/19/1
f 60/6/1 72/137/1 68/140/1 6/7/1
f 51/141/1 79/142/1 80/143/1 66/144/1
f 37/145/1 78/146/1 79/147/1 51/148/1
f 81/149/1 86/150/1 78/146/1 37/145/1
f 9/151/1 75/152/1 77/153/1 25/154/1
f 25/155/1 77/156/1 76/157/1 16/158/1
f 1/159/1 74/160/1 75/161/1 9/162/1
f 66/144/1 80/143/1 73/163/1 3/164/1
f 16/165/1 76/166/1 86/167/1 81/168/1
f 23/169/1 13/170/1 82/171/1 85/172/1
f 76/173/1 14/174/1 83/175/1 86/176/1
f 24/177/1 23/178/1 85/179/1 84/180/1
